<?xml version="1.0" encoding="UTF-8" standalone="no" ?>
<!DOCTYPE svg PUBLIC "-//W3C//DTD SVG 1.1//EN" "http://www.w3.org/Graphics/SVG/1.1/DTD/svg11.dtd">
<svg xmlns="http://www.w3.org/2000/svg" xmlns:xlink="http://www.w3.org/1999/xlink" version="1.1" width="13.009000000000002" height="26.609475306376602" viewBox="250 230.40513889002156 13.009000000000002 26.609475306376602" xml:space="preserve">
<desc>Created with Fabric.js 4.6.0</desc>
<defs>
</defs>
<g transform="matrix(1 0 0 1 256.5 243.71)" id="lAZSbfuB6FwPGu1_RWIAM"  >
<path style="stroke: none; stroke-width: 1; stroke-dasharray: none; stroke-linecap: butt; stroke-dashoffset: 0; stroke-linejoin: miter; stroke-miterlimit: 4; fill: rgb(243,129,129); fill-rule: nonzero; opacity: 1;" vector-effect="non-scaling-stroke"  transform=" translate(-6.11, -13)" d="M 12.09 0.199 L 12.09 4.319 C 12.09 4.319 9.052 4.017 8.291 5.181 C 7.875 5.817 8.122 7.681 8.085 9.018 L 12.115000000000002 9.018 C 11.774000000000003 10.583 11.530000000000001 11.643 11.279000000000002 12.997 L 8.063 12.997 L 8.063 25.801000000000002 L 2.48 25.801000000000002 L 2.48 13.047 L 0.106 13.047 L 0.106 9.018 L 2.455 9.018 C 2.575 6.073 2.62 3.154000000000001 4.084 1.668000000000001 C 5.728 -0.001 7.297 0.199 12.089 0.199 z" stroke-linecap="round" />
</g>
</svg>