<svg xmlns="http://www.w3.org/2000/svg" width="21" height="26" viewBox="0 0 21 26"><g><g><path fill="#f38181" d="M9.05 16.854c-.208.833-.419 1.706-.637 2.56-.215.842-.405 1.696-.718 2.47-.519 1.281-1.178 2.52-2.043 3.521-.575.667-.453.4-.626.365-.132-.028-.143-.157-.17-.345-.14-1.019-.044-2.195.008-3.34.06-1.303.334-2.387.589-3.47.484-2.064.946-4.087 1.435-6.164.032-.138.12-.366.09-.445-.222-.577-.366-1.095-.429-1.7a5.41 5.41 0 0 1 .14-1.944c.276-1.058.912-1.995 1.893-2.338.624-.216 1.315-.119 1.735.132.432.258.729.666.867 1.245.148.616.039 1.352-.08 1.892-.267 1.219-.618 2.133-.937 3.31-.158.583-.337 1.182-.19 1.812.137.578.438.976.848 1.275.426.31.93.48 1.625.455 1.228-.043 2.081-.828 2.651-1.568.913-1.185 1.465-2.784 1.675-4.687.068-.613.117-1.318.07-2.013-.088-1.284-.49-2.317-1.127-3.117-.606-.762-1.466-1.37-2.512-1.711-1.037-.338-2.472-.451-3.747-.233-2.318.397-3.952 1.714-4.915 3.533a7.077 7.077 0 0 0-.837 3.41c0 1.05.26 1.865.678 2.5.133.201.328.367.458.597.185.326-.028.81-.12 1.164-.11.425-.12 1.012-.617 1.022-.206.004-.464-.147-.638-.243-1.305-.721-2.097-2.033-2.422-3.735a8.933 8.933 0 0 1 0-3.237c.19-.967.544-1.859.937-2.581a9.235 9.235 0 0 1 3.459-3.563C6.559 1.023 7.818.56 9.35.337a16.472 16.472 0 0 1 1.605-.132 9.633 9.633 0 0 1 4.326.81 8.848 8.848 0 0 1 2.98 2.146c.838.914 1.448 1.98 1.834 3.309.202.692.398 1.432.398 2.287 0 .858-.181 1.613-.308 2.368-.474 2.828-1.819 5.141-3.838 6.457-.49.32-1.081.614-1.754.81-.667.194-1.428.34-2.243.283a4.596 4.596 0 0 1-1.983-.577c-.54-.305-.994-.679-1.316-1.244z"/></g></g></svg>