<svg xmlns="http://www.w3.org/2000/svg" width="16" height="16" viewBox="0 0 16 16"><g><g><path fill="#95e1d3" d="M16 8.014a8.028 8.028 0 0 1-.629 3.115 7.957 7.957 0 0 1-1.714 2.543 8.051 8.051 0 0 1-2.543 1.714 7.993 7.993 0 0 1-3.114.63 7.961 7.961 0 0 1-3.115-.63 8.004 8.004 0 0 1-2.542-1.714A8.092 8.092 0 0 1 .629 11.13a7.972 7.972 0 0 1-.63-3.115 7.995 7.995 0 0 1 8-8 8.013 8.013 0 0 1 3.115.63A8.034 8.034 0 0 1 15.371 4.9a7.977 7.977 0 0 1 .63 3.113zm-2.723-4.34c-.013.02-1.109 1.604-3.807 2.705a21.237 21.237 0 0 1 .601 1.343c2.348-.294 4.66.203 4.76.225a6.802 6.802 0 0 0-1.554-4.272zM8 1.183c-.555 0-1.094.068-1.61.193.103.135 1.386 1.84 2.554 3.986 2.579-.966 3.552-2.447 3.569-2.474A6.804 6.804 0 0 0 8 1.182zm-1.658.205l.02-.005.002-.001c-.008.002-.015.003-.022.006zm-5.028 5.22c.18.003 3.027.037 6.308-.835a41.147 41.147 0 0 0-2.537-3.937 6.842 6.842 0 0 0-3.771 4.771zm1.604 5.974l-.002-.004s1.87-3.317 5.557-4.509c.09-.029.179-.057.269-.082a22.232 22.232 0 0 0-.554-1.16c-3.518 1.051-6.894.975-7.015.972-.002.072-.005.143-.005.216 0 1.755.662 3.356 1.75 4.567zm7.75 1.725c-.102-.597-.499-2.69-1.46-5.187l-.045.014C5.11 10.544 3.8 13.401 3.8 13.401s-.063-.047-.153-.12A6.801 6.801 0 0 0 8 14.847c.946 0 1.848-.192 2.668-.54zM14.745 9.1c-.141-.046-2.052-.65-4.258-.298.896 2.463 1.26 4.468 1.33 4.88A6.837 6.837 0 0 0 14.746 9.1z"/></g></g></svg>