<svg xmlns="http://www.w3.org/2000/svg" width="16" height="14" viewBox="0 0 16 14"><g><g><path fill="#95e1d3" d="M13.5 3.717v2.44h-1v-2.44H10v-.998h2.5V.279h1v2.44H16v.998zM6.585 1.246c.888.49 1.408 1.288 1.408 2.33 0 .877-.541 1.567-1.24 2.103-.68.522-.81.742-.81 1.185 0 .379.73 1.025 1.112 1.29 1.114.774 1.444 1.493 1.444 2.693 0 1.497-1.444 3.169-4.116 3.169C2.04 14.016 0 12.896 0 11.398 0 9.878 1.866 8.41 4.21 8.41c.255 0 .489-.01.73-.01-.32-.307-.573-.688-.573-1.152 0-.274.089-.55.214-.785-.128.01-.258-.012-.392-.012-1.924 0-3.214-1.39-3.214-3.056 0-1.631 1.78-3.133 3.673-3.133h4.22l-.945.983zm-1.93 7.553c-1.619-.017-3.07.97-3.07 2.156 0 1.209 1.17 2.093 2.79 2.093 2.276 0 3.07-.822 3.07-2.031 0-.146-.018-.29-.052-.428-.178-.685-.808-1.024-1.688-1.624a3.586 3.586 0 0 0-1.05-.166zm1.82-5.203c-.188-1.402-1.268-2.528-2.355-2.56-1.087-.03-1.816 1.042-1.628 2.444.188 1.403 1.22 2.565 2.308 2.597 1.087.032 1.863-1.079 1.676-2.481z"/></g></g></svg>