<svg xmlns="http://www.w3.org/2000/svg" width="13" height="16" viewBox="0 0 13 16"><g><g><path fill="#95e1d3" d="M5.844 10.424c-.13.52-.262 1.066-.398 1.6-.135.526-.253 1.06-.449 1.543-.324.8-.736 1.575-1.277 2.201-.36.417-.283.25-.391.228-.083-.017-.09-.098-.106-.215-.088-.636-.028-1.372.005-2.087.037-.815.208-1.493.367-2.17.303-1.29.592-2.554.897-3.852.02-.086.075-.23.057-.278a4.014 4.014 0 0 1-.268-1.063 3.38 3.38 0 0 1 .087-1.214c.172-.662.57-1.248 1.183-1.461.39-.136.822-.075 1.084.082.27.16.456.417.542.778.093.385.025.844-.05 1.183-.166.76-.386 1.333-.585 2.068-.099.364-.21.739-.118 1.132.085.361.273.61.53.797.265.193.58.3 1.015.285.767-.028 1.3-.518 1.657-.98.57-.741.915-1.74 1.046-2.93a7.2 7.2 0 0 0 .044-1.258c-.054-.802-.306-1.448-.704-1.948a3.3 3.3 0 0 0-1.57-1.069c-.648-.212-1.545-.282-2.342-.146-1.448.249-2.47 1.072-3.072 2.208a4.426 4.426 0 0 0-.523 2.131c0 .657.162 1.166.424 1.563.083.125.205.23.286.373.116.203-.018.507-.075.727-.068.266-.076.634-.386.64-.128.002-.29-.092-.399-.153-.815-.45-1.31-1.27-1.513-2.333a5.589 5.589 0 0 1 0-2.025A5.771 5.771 0 0 1 3.589.942 6.526 6.526 0 0 1 6.031.101C6.35.055 6.678.035 7.034.018a6.023 6.023 0 0 1 2.704.507 5.533 5.533 0 0 1 1.863 1.34 5.08 5.08 0 0 1 1.146 2.069c.126.432.249.895.249 1.43 0 .535-.114 1.007-.193 1.48-.296 1.767-1.137 3.212-2.398 4.035a4.14 4.14 0 0 1-1.097.506c-.417.121-.892.212-1.402.177a2.873 2.873 0 0 1-1.24-.36c-.337-.191-.62-.425-.822-.778z"/></g></g></svg>