<svg xmlns="http://www.w3.org/2000/svg" width="10" height="16" viewBox="0 0 10 16"><g><g><path fill="#95e1d3" d="M10.009 15.145c-.68.32-1.297.548-1.849.678a7.81 7.81 0 0 1-1.79.195 4.867 4.867 0 0 1-1.717-.276 4.171 4.171 0 0 1-1.43-.79c-.397-.343-.67-.709-.824-1.093-.152-.385-.228-.943-.228-1.676V6.569H.007V4.302c.626-.204 1.351-.497 1.796-.879.448-.382.805-.84 1.075-1.376.27-.533.457-1.212.558-2.04H5.7v3.705h3.682v2.857H5.701v4.104c0 .93-.012 1.465.086 1.727.097.263.341.534.607.692.353.212.755.319 1.209.319.806 0 1.608-.264 2.406-.79z"/></g></g></svg>