<svg xmlns="http://www.w3.org/2000/svg" width="16" height="14" viewBox="0 0 16 14"><g><g><path fill="#95e1d3" d="M10.883.515c1.271-.022 1.948.441 2.594 1.03.55-.047 1.262-.353 1.682-.567l.409-.223c-.24.648-.566 1.155-1.066 1.54-.11.087-.22.202-.36.256v.008c.712-.007 1.3-.328 1.858-.502v.007c-.293.466-.69.94-1.113 1.278l-.513.407c.01.754-.01 1.474-.152 2.107-.82 3.686-2.992 6.187-6.43 7.258-1.235.385-3.23.543-4.645.192a12.006 12.006 0 0 1-1.93-.63c-.33-.145-.636-.301-.929-.48L0 12.02c.319.01.692.098 1.05.04.322-.052.638-.038.936-.103.742-.163 1.402-.378 1.97-.71.275-.162.693-.35.889-.584a2.793 2.793 0 0 1-.977-.175c-1.062-.375-1.68-1.065-2.082-2.1.322.035 1.248.12 1.465-.064-.405-.023-.794-.257-1.073-.431C1.324 7.358.628 6.46.633 5.083l.336.159a3.6 3.6 0 0 0 .689.192c.108.022.324.086.448.04H2.09c-.165-.193-.434-.321-.6-.527C.94 4.265.427 3.217.752 1.968c.082-.316.213-.596.352-.854l.016.009c.064.132.206.23.296.343.28.346.626.659.977.933 1.2.938 2.279 1.514 4.012 1.941.44.108.949.19 1.474.191-.148-.43-.1-1.125.016-1.54.292-1.046.927-1.8 1.858-2.204.222-.096.47-.167.728-.223l.4-.049z"/></g></g></svg>