<?xml version="1.0" encoding="UTF-8" standalone="no" ?>
<!DOCTYPE svg PUBLIC "-//W3C//DTD SVG 1.1//EN" "http://www.w3.org/Graphics/SVG/1.1/DTD/svg11.dtd">
<svg xmlns="http://www.w3.org/2000/svg" xmlns:xlink="http://www.w3.org/1999/xlink" version="1.1" width="26.599999999999998" height="26.6" viewBox="201.795061728395 192.90123456790124 26.599999999999998 26.6" xml:space="preserve">
<desc>Created with Fabric.js 4.6.0</desc>
<defs>
</defs>
<g transform="matrix(1 0 0 1 215.1 206.2)" id="nAP_VtVB3jis1vAwgGRH4"  >
<path style="stroke: none; stroke-width: 1; stroke-dasharray: none; stroke-linecap: butt; stroke-dashoffset: 0; stroke-linejoin: miter; stroke-miterlimit: 4; fill: rgb(255,255,255); fill-rule: nonzero; opacity: 1;" vector-effect="non-scaling-stroke"  transform=" translate(-13.1, -13)" d="M 22.7 25.8 L 3.5 25.8 C 1.732688800541462 25.8 0.3000000000000007 24.36731119945854 0.2999999999999998 22.6 L 0.2999999999999998 3.4 C 0.2999999999999998 1.6326888005414615 1.7326888005414616 0.20000000000000062 3.5 0.20000000000000062 L 22.7 0.2 C 24.46731119945854 0.2 25.9 1.6326888005414608 25.9 3.3999999999999995 L 25.9 22.6 C 25.9 24.367311199458538 24.467311199458535 25.8 22.7 25.8 z M 13.1 8.04 C 11.167451503371403 8.041122921248215 9.411744258205431 9.165275181381162 8.602 10.920000000000002 L 8.597 10.919999999999998 L 8.575 10.973999999999998 C 8.528625835289375 11.079484139025856 8.485933377578062 11.186548818130008 8.447 11.295000000000002 C 8.427 11.347999999999999 8.407 11.398999999999997 8.389999999999999 11.450999999999999 C 8.354353745911867 11.563183541682905 8.322667460487647 11.676587089516959 8.294999999999998 11.790999999999999 C 8.280999999999999 11.844 8.264999999999999 11.896999999999998 8.252999999999998 11.950999999999999 C 8.226999999999999 12.070999999999998 8.208999999999998 12.194999999999999 8.191999999999998 12.318999999999999 C 8.184999999999999 12.369 8.174999999999999 12.418 8.168999999999999 12.469 C 7.961911627193306 14.359281775113878 8.853773246621344 16.201563004312774 10.464934972219716 17.211616803595902 C 12.076096697818084 18.22167060287903 14.122903302181916 18.22167060287903 15.734065027780286 17.211616803595902 C 17.345226753378654 16.201563004312774 18.237088372806696 14.359281775113878 18.03 12.469 C 18.025000000000002 12.418 18.015 12.369 18.008000000000003 12.318999999999999 C 17.99229560494406 12.195610765900236 17.971947839391216 12.07285703272897 17.947000000000003 11.950999999999999 C 17.935000000000002 11.896999999999998 17.919000000000004 11.844 17.905 11.790999999999999 C 17.87732615180774 11.676588753802971 17.84563992885246 11.56318542954197 17.810000000000002 11.450999999999999 C 17.793000000000003 11.399 17.772000000000002 11.347999999999999 17.753000000000004 11.294999999999998 C 17.714062103518845 11.186550529688434 17.671369707992092 11.079486006531502 17.625000000000004 10.973999999999997 L 17.603000000000005 10.918999999999999 L 17.598000000000006 10.918999999999999 C 16.787962851537912 9.164665412095584 15.032317039030662 8.040942803334278 13.100000000000001 8.04 z M 23.02 4.358999999999999 C 23.02 4.019522893005383 22.885143244332266 3.693949884494702 22.64509667991878 3.4539033200812175 C 22.405050115505293 3.2138567556677327 22.079477106994613 3.0789999999999984 21.74 3.078999999999999 L 19.18 3.078999999999999 C 18.84052289300538 3.0789999999999984 18.5149498844947 3.2138567556677335 18.27490332008122 3.453903320081218 C 18.034856755667732 3.6939498844947023 17.9 4.019522893005382 17.9 4.358999999999999 L 17.9 6.918999999999999 C 17.9 7.626999999999999 18.473 8.198999999999998 19.18 8.198999999999998 L 21.74 8.198999999999998 C 22.079477106994617 8.198999999999998 22.405050115505297 8.064143244332264 22.64509667991878 7.824096679918779 C 22.885143244332266 7.584050115505295 23.02 7.258477106994614 23.02 6.918999999999997 z M 23.02 10.918999999999999 L 20.66 10.918999999999999 C 21.309152555140027 13.278122543538705 20.819666331607685 15.805049653851153 19.336559911900338 17.75113638447243 C 17.853453492192994 19.697223115093713 15.54680569864405 20.83929725470803 13.1 20.839 C 10.653194301355953 20.83929725470803 8.346546507807012 19.697223115093713 6.863440088099666 17.751136384472435 C 5.3803336683923195 15.805049653851157 4.8908474448599755 13.278122543538709 5.540000000000001 10.919000000000002 L 3.18 10.918999999999999 L 3.18 21.639 C 3.18 22.346999999999998 3.753 22.919 4.46 22.919 L 21.740000000000002 22.919 C 22.07947710699462 22.919 22.4050501155053 22.784143244332267 22.645096679918783 22.54409667991878 C 22.88514324433227 22.304050115505298 23.020000000000003 21.978477106994617 23.020000000000003 21.639 z" stroke-linecap="round" />
</g>
</svg>