<?xml version="1.0" encoding="UTF-8" standalone="no" ?>
<!DOCTYPE svg PUBLIC "-//W3C//DTD SVG 1.1//EN" "http://www.w3.org/Graphics/SVG/1.1/DTD/svg11.dtd">
<svg xmlns="http://www.w3.org/2000/svg" xmlns:xlink="http://www.w3.org/1999/xlink" version="1.1" width="20.59384509243007" height="26.657005595439667" viewBox="0.40307745378496485 -0.308502797719834 20.59384509243007 26.657005595439667" xml:space="preserve">
<desc>Created with Fabric.js 4.6.0</desc>
<defs>
</defs>
<g transform="matrix(1 0 0 1 10.7 13.02)" id="Pe--6oi757VQLuVcLnYOx"  >
<path style="stroke: none; stroke-width: 1; stroke-dasharray: none; stroke-linecap: butt; stroke-dashoffset: 0; stroke-linejoin: miter; stroke-miterlimit: 4; fill: rgb(255,255,255); fill-rule: nonzero; opacity: 1;" vector-effect="non-scaling-stroke"  transform=" translate(-10.7, -13.02)" d="M 9.05 16.854 C 8.842 17.686999999999998 8.631 18.56 8.413 19.413999999999998 C 8.198 20.255999999999997 8.008000000000001 21.11 7.695 21.883999999999997 C 7.176 23.164999999999996 6.517 24.403999999999996 5.652 25.404999999999998 C 5.077 26.072 5.199 25.804999999999996 5.026 25.769999999999996 C 4.894 25.741999999999997 4.883 25.612999999999996 4.856 25.424999999999997 C 4.716 24.406 4.812 23.229999999999997 4.864 22.084999999999997 C 4.9239999999999995 20.781999999999996 5.1979999999999995 19.697999999999997 5.452999999999999 18.615 C 5.936999999999999 16.551 6.398999999999999 14.527999999999999 6.888 12.450999999999999 C 6.92 12.312999999999999 7.008 12.084999999999999 6.978 12.005999999999998 C 6.755999999999999 11.428999999999998 6.612 10.910999999999998 6.5489999999999995 10.306 C 6.477593367491513 9.654868079365666 6.5250296865604485 8.996180906008448 6.688999999999998 8.362000000000002 C 6.964999999999999 7.3039999999999985 7.600999999999999 6.366999999999998 8.581999999999999 6.023999999999998 C 9.206 5.807999999999998 9.896999999999998 5.9049999999999985 10.316999999999998 6.155999999999998 C 10.748999999999999 6.413999999999998 11.045999999999998 6.821999999999998 11.183999999999997 7.400999999999998 C 11.331999999999997 8.016999999999998 11.222999999999997 8.752999999999998 11.103999999999997 9.292999999999997 C 10.836999999999998 10.511999999999997 10.485999999999997 11.425999999999998 10.166999999999998 12.602999999999998 C 10.008999999999999 13.185999999999998 9.829999999999998 13.784999999999998 9.976999999999999 14.414999999999997 C 10.113999999999999 14.992999999999997 10.415 15.390999999999998 10.825 15.689999999999998 C 11.251 15.999999999999998 11.754999999999999 16.169999999999998 12.45 16.144999999999996 C 13.677999999999999 16.101999999999997 14.530999999999999 15.316999999999997 15.100999999999999 14.576999999999996 C 16.014 13.391999999999996 16.566 11.792999999999996 16.776 9.889999999999997 C 16.844 9.276999999999997 16.893 8.571999999999997 16.846 7.876999999999997 C 16.758 6.592999999999997 16.356 5.559999999999997 15.719 4.759999999999997 C 15.113 3.997999999999997 14.253 3.389999999999997 13.206999999999999 3.048999999999997 C 12.169999999999998 2.7109999999999967 10.735 2.5979999999999968 9.459999999999999 2.8159999999999967 C 7.1419999999999995 3.2129999999999965 5.507999999999999 4.529999999999997 4.544999999999999 6.348999999999997 C 3.9839768253250467 7.397308125103592 3.6961172144271917 8.570069502835592 3.7079999999999993 9.759 C 3.7079999999999993 10.808999999999997 3.967999999999999 11.623999999999997 4.385999999999999 12.258999999999997 C 4.518999999999999 12.459999999999997 4.7139999999999995 12.625999999999998 4.843999999999999 12.855999999999996 C 5.028999999999999 13.181999999999997 4.816 13.665999999999997 4.723999999999999 14.019999999999996 C 4.613999999999999 14.444999999999997 4.603999999999999 15.031999999999996 4.106999999999999 15.041999999999996 C 3.9009999999999994 15.045999999999996 3.6429999999999993 14.894999999999996 3.4689999999999994 14.798999999999996 C 2.1639999999999997 14.077999999999996 1.3719999999999994 12.765999999999996 1.0469999999999993 11.063999999999997 C 0.8498732100932374 9.9940034687903 0.8498732100932377 8.896996531209695 1.0469999999999993 7.826999999999998 C 1.2369999999999992 6.859999999999997 1.5909999999999993 5.967999999999996 1.9839999999999993 5.245999999999997 C 2.7900693519047275 3.7647988220583954 3.9863199911262654 2.5325811211198777 5.443 1.6829999999999972 C 6.559 1.023 7.818 0.56 9.35 0.337 C 9.882527847049051 0.26685798818204143 10.418167829698955 0.2228053540949414 10.954999999999993 0.20499999999999502 C 12.44018536322895 0.13755424456784432 13.920826571551668 0.4147894222704322 15.280999999999992 1.0149999999999952 C 16.41348242028086 1.514055563719355 17.42867800952617 2.2451326558403046 18.260999999999996 3.1609999999999974 C 19.099 4.075 19.709 5.141 20.095 6.470000000000001 C 20.297 7.162000000000001 20.493 7.902000000000001 20.493 8.757000000000001 C 20.493 9.615000000000002 20.311999999999998 10.370000000000001 20.185 11.125000000000002 C 19.711 13.953000000000001 18.366 16.266000000000002 16.346999999999998 17.582 C 15.856999999999998 17.902 15.265999999999998 18.196 14.592999999999998 18.392 C 13.925999999999998 18.586 13.165 18.732 12.349999999999998 18.675 C 11.653786651740257 18.63559245229982 10.975668068083131 18.438278068653748 10.366999999999996 18.098 C 9.826999999999998 17.793 9.372999999999998 17.419 9.050999999999997 16.854 z" stroke-linecap="round" />
</g>
</svg>