<?xml version="1.0" encoding="UTF-8" standalone="no" ?>
<!DOCTYPE svg PUBLIC "-//W3C//DTD SVG 1.1//EN" "http://www.w3.org/Graphics/SVG/1.1/DTD/svg11.dtd">
<svg xmlns="http://www.w3.org/2000/svg" xmlns:xlink="http://www.w3.org/1999/xlink" version="1.1" width="26.6" height="21.778744673937883" viewBox="-0.40000000000000036 0.10062766303105874 26.6 21.778744673937883" xml:space="preserve">
<desc>Created with Fabric.js 4.6.0</desc>
<defs>
</defs>
<g transform="matrix(1 0 0 1 12.9 10.99)" id="O5eHsGQDWhP5u0z0Cq2U9"  >
<path style="stroke: none; stroke-width: 1; stroke-dasharray: none; stroke-linecap: butt; stroke-dashoffset: 0; stroke-linejoin: miter; stroke-miterlimit: 4; fill: rgb(255,255,255); fill-rule: nonzero; opacity: 1;" vector-effect="non-scaling-stroke"  transform=" translate(-12.9, -10.99)" d="M 17.513 0.6 C 19.547 0.565 20.630000000000003 1.306 21.663000000000004 2.2479999999999998 C 22.542000000000005 2.1729999999999996 23.683000000000003 1.682 24.355000000000004 1.3409999999999997 L 25.008000000000003 0.9839999999999998 C 24.624000000000002 2.021 24.104000000000003 2.8329999999999997 23.304000000000002 3.45 C 23.126 3.5860000000000003 22.950000000000003 3.7710000000000004 22.727000000000004 3.858 L 22.727000000000004 3.871 C 23.867000000000004 3.859 24.807000000000002 3.3449999999999998 25.700000000000003 3.066 L 25.700000000000003 3.0789999999999997 C 25.231 3.824 24.596000000000004 4.5809999999999995 23.919000000000004 5.122999999999999 L 23.099000000000004 5.773999999999999 C 23.114000000000004 6.980999999999999 23.081000000000003 8.132 22.855000000000004 9.146999999999998 C 21.544000000000004 15.041999999999998 18.068000000000005 19.043999999999997 12.567000000000004 20.759 C 10.591000000000005 21.374 7.399000000000004 21.627 5.135000000000003 21.065 C 4.0130000000000035 20.787000000000003 2.999000000000003 20.472 2.0470000000000033 20.056 C 1.534780479779408 19.834466611857632 1.0382915504334314 19.578203483453617 0.5610000000000026 19.289 L 0.1 19.01 C 0.61 19.025000000000002 1.2080000000000002 19.166 1.778 19.074 C 2.295 18.990000000000002 2.801 19.012 3.278 18.908 C 4.466 18.647000000000002 5.521 18.302 6.429 17.770000000000003 C 6.87 17.512000000000004 7.539000000000001 17.210000000000004 7.852 16.838000000000005 C 7.2620000000000005 16.848000000000006 6.727 16.711000000000006 6.289000000000001 16.557000000000006 C 4.589 15.957000000000006 3.6010000000000004 14.854000000000006 2.9570000000000007 13.197000000000006 C 3.472000000000001 13.253000000000005 4.955000000000001 13.387000000000006 5.302000000000001 13.095000000000006 C 4.654000000000002 13.059000000000006 4.0310000000000015 12.684000000000006 3.5850000000000013 12.405000000000006 C 2.2180000000000013 11.550000000000006 1.1040000000000014 10.115000000000006 1.1120000000000014 7.909000000000006 L 1.6500000000000015 8.164000000000007 C 1.9940000000000015 8.309000000000006 2.3430000000000013 8.386000000000006 2.7520000000000016 8.471000000000007 C 2.9250000000000016 8.506000000000007 3.2720000000000016 8.608000000000008 3.4700000000000015 8.534000000000008 L 3.4440000000000017 8.534000000000008 C 3.1800000000000015 8.227000000000007 2.749000000000002 8.021000000000008 2.4840000000000018 7.691000000000008 C 1.6060000000000016 6.601000000000008 0.7840000000000018 4.924000000000008 1.3040000000000018 2.9270000000000076 C 1.4360000000000017 2.4200000000000075 1.6450000000000018 1.9730000000000076 1.8680000000000017 1.5600000000000076 L 1.8940000000000017 1.5720000000000076 C 1.9960000000000018 1.7860000000000076 2.2240000000000015 1.9420000000000077 2.3680000000000017 2.122000000000008 C 2.8160000000000016 2.677000000000008 3.3680000000000017 3.176000000000008 3.931000000000002 3.6160000000000077 C 5.849000000000002 5.116000000000008 7.576000000000002 6.038000000000007 10.351000000000003 6.720000000000008 C 11.054000000000002 6.894000000000008 11.867000000000003 7.026000000000008 12.708000000000002 7.027000000000008 C 12.472000000000001 6.339000000000008 12.548000000000002 5.227000000000008 12.733000000000002 4.561000000000008 C 13.201000000000002 2.888000000000008 14.216000000000003 1.6830000000000078 15.706000000000003 1.036000000000008 C 16.08216851243583 0.8792229302867904 16.472666002891756 0.7593274743835112 16.872 0.6780000000000075 L 17.512000000000004 0.6020000000000081 z" stroke-linecap="round" />
</g>
</svg>