<?xml version="1.0" encoding="utf-8"?><svg viewBox="0 0 80 80" xmlns="http://www.w3.org/2000/svg" xmlns:xlink="http://www.w3.org/1999/xlink"><style>:root>svg{display:none}:root>svg:target{display:block}</style><svg fill="none" viewBox="0 0 26 26" id="close" xmlns="http://www.w3.org/2000/svg"><path fill-rule="evenodd" clip-rule="evenodd" d="M14.436 13 25.703 1.734A1.016 1.016 0 1 0 24.265.297L13 11.564 1.734.297A1.016 1.016 0 1 0 .297 1.734L11.564 13 .297 24.266a1.016 1.016 0 0 0 1.437 1.437L13 14.436l11.266 11.267a1.013 1.013 0 0 0 1.437 0 1.016 1.016 0 0 0 0-1.437L14.436 13z" fill="#363838"/></svg><svg fill="none" viewBox="0 0 37 29" id="icon_menu" xmlns="http://www.w3.org/2000/svg"><path d="M35.458 26H1.542C.69 26 0 26.672 0 27.5S.69 29 1.542 29h33.916C36.31 29 37 28.328 37 27.5s-.69-1.5-1.542-1.5zM35.5 0h-21a1.5 1.5 0 0 0 0 3h21a1.5 1.5 0 0 0 0-3zm-.042 9H1.542C.69 9 0 9.672 0 10.5S.69 12 1.542 12h33.916C36.31 12 37 11.328 37 10.5S36.31 9 35.458 9zm.042 9h-21a1.5 1.5 0 0 0 0 3h21a1.5 1.5 0 0 0 0-3z" fill="#000"/></svg><svg fill="none" viewBox="0 0 80 80" id="play_button" xmlns="http://www.w3.org/2000/svg"><path fill-rule="evenodd" clip-rule="evenodd" d="M40 80c22.091 0 40-17.909 40-40S62.091 0 40 0 0 17.909 0 40s17.909 40 40 40z" fill="#363838" fill-opacity=".4"/><g filter="url(#ca)"><path fill-rule="evenodd" clip-rule="evenodd" d="M58.5 39.634a1 1 0 0 1 0 1.732L32.25 56.522a1 1 0 0 1-1.5-.867v-30.31a1 1 0 0 1 1.5-.866L58.5 39.633z" fill="#fff" fill-opacity=".93"/></g><defs><filter id="ca" x="26.75" y="21.343" width="36.25" height="40.314" filterUnits="userSpaceOnUse" color-interpolation-filters="sRGB"><feFlood flood-opacity="0" result="BackgroundImageFix"/><feColorMatrix in="SourceAlpha" values="0 0 0 0 0 0 0 0 0 0 0 0 0 0 0 0 0 0 127 0" result="hardAlpha"/><feOffset dy="1"/><feGaussianBlur stdDeviation="2"/><feColorMatrix values="0 0 0 0 0 0 0 0 0 0 0 0 0 0 0 0 0 0 0.852218 0"/><feBlend in2="BackgroundImageFix" result="effect1_dropShadow_5_290"/><feBlend in="SourceGraphic" in2="effect1_dropShadow_5_290" result="shape"/></filter></defs></svg></svg>